<svg width="222" height="222" viewBox="0 0 222 222" fill="none" xmlns="http://www.w3.org/2000/svg">
<path d="M5.63672 155.443C8.74965 155.443 11.2733 157.967 11.2734 161.08V186.012C11.2734 199.639 22.3606 210.727 35.9883 210.727H60.9199C64.0329 210.727 66.5565 213.25 66.5566 216.363C66.5566 219.476 64.0329 222 60.9199 222H35.9883C16.1444 222 0 205.856 0 186.012V161.08C9.06385e-05 157.967 2.52379 155.443 5.63672 155.443ZM216.363 155.443C219.476 155.443 222 157.967 222 161.08V186.012C222 205.856 205.856 222 186.012 222H161.08C157.967 222 155.443 219.476 155.443 216.363C155.443 213.25 157.967 210.727 161.08 210.727H186.012C199.639 210.727 210.727 199.639 210.727 186.012V161.08C210.727 157.967 213.25 155.443 216.363 155.443ZM141.955 155.479C144.33 153.286 148.034 153.433 150.228 155.808C152.421 158.182 152.274 161.886 149.899 164.079C139.28 173.888 125.464 179.29 110.999 179.29C96.5339 179.29 82.7193 173.888 72.0996 164.079C69.725 161.886 69.5782 158.182 71.7715 155.808C73.9652 153.433 77.6687 153.286 80.0439 155.479C88.4939 163.285 99.4872 167.583 110.999 167.583C122.511 167.583 133.505 163.285 141.955 155.479ZM116.854 77.8301C120.086 77.8301 122.707 80.4507 122.707 83.6836V125.309C122.707 133.557 115.997 140.268 107.748 140.268H102.979C99.7457 140.268 97.125 137.647 97.125 134.414C97.125 131.181 99.7457 128.561 102.979 128.561H107.748C109.541 128.561 111 127.102 111 125.309V83.6836C111 80.4507 113.621 77.8301 116.854 77.8301ZM65.7979 77.8301C68.851 77.8301 71.3262 80.3053 71.3262 83.3584V100.052C71.3262 103.105 68.851 105.58 65.7979 105.58C62.7447 105.58 60.2695 103.105 60.2695 100.052V83.3584C60.2695 80.3053 62.7447 77.8301 65.7979 77.8301ZM157.503 77.8301C160.556 77.8301 163.031 80.3053 163.031 83.3584V100.052C163.031 103.105 160.556 105.58 157.503 105.58C154.45 105.58 151.975 103.105 151.975 100.052V83.3584C151.975 80.3053 154.45 77.8301 157.503 77.8301ZM60.9199 0C64.0329 8.48687e-07 66.5566 2.52373 66.5566 5.63672C66.5566 8.7497 64.0329 11.2734 60.9199 11.2734H35.9883C22.3606 11.2734 11.2734 22.3604 11.2734 35.9883V60.9199C11.2734 64.0329 8.7497 66.5566 5.63672 66.5566C2.52373 66.5566 8.48659e-07 64.0329 0 60.9199V35.9883C0 16.1442 16.1444 0 35.9883 0H60.9199ZM186.012 0C205.856 4.27366e-07 222 16.1442 222 35.9883V60.9199C222 64.0329 219.476 66.5566 216.363 66.5566C213.25 66.5566 210.727 64.0329 210.727 60.9199V35.9883C210.727 22.3604 199.639 11.2734 186.012 11.2734H161.08C157.967 11.2734 155.443 8.74971 155.443 5.63672C155.443 2.52373 157.967 0 161.08 0H186.012Z" fill="#2E2929"/>
</svg>
